<svg width="1828" height="2419" viewBox="0 0 1828 2419" fill="none" xmlns="http://www.w3.org/2000/svg">
<g id="e-commerce platform">
<g id="woocommerce">
<g id="woocommerce-logo">
<g id="Group 5">
<path id="Vector" d="M1531.82 1130.9H1736.94C1749.93 1130.9 1760.43 1141.45 1760.43 1154.48V1233.09C1760.43 1246.12 1749.93 1256.67 1736.94 1256.67H1663.38L1673.48 1281.5L1629.08 1256.67H1531.92C1518.94 1256.67 1508.44 1246.12 1508.44 1233.09V1154.48C1508.33 1141.55 1518.84 1130.9 1531.82 1130.9Z" fill="#9B5C8F"/>
<path id="Vector_2" d="M1522.78 1152.39C1524.22 1150.44 1526.37 1149.41 1529.24 1149.2C1534.46 1148.79 1537.43 1151.26 1538.15 1156.61C1541.33 1178.1 1544.81 1196.31 1548.5 1211.22L1570.93 1168.33C1572.98 1164.42 1575.54 1162.37 1578.61 1162.16C1583.12 1161.85 1585.89 1164.73 1587.01 1170.8C1589.58 1184.48 1592.85 1196.1 1596.75 1205.97C1599.41 1179.85 1603.92 1161.03 1610.27 1149.41C1611.8 1146.53 1614.06 1145.09 1617.03 1144.88C1619.39 1144.68 1621.54 1145.4 1623.48 1146.94C1625.43 1148.48 1626.45 1150.44 1626.66 1152.8C1626.76 1154.65 1626.45 1156.2 1625.63 1157.74C1621.64 1165.14 1618.36 1177.59 1615.7 1194.87C1613.14 1211.63 1612.21 1224.69 1612.83 1234.05C1613.03 1236.62 1612.62 1238.88 1611.6 1240.84C1610.37 1243.1 1608.53 1244.34 1606.17 1244.54C1603.51 1244.75 1600.74 1243.51 1598.08 1240.74C1588.55 1230.96 1580.97 1216.36 1575.44 1196.92C1568.78 1210.09 1563.86 1219.96 1560.69 1226.54C1554.64 1238.16 1549.52 1244.13 1545.22 1244.44C1542.45 1244.64 1540.1 1242.28 1538.05 1237.34C1532.82 1223.87 1527.19 1197.85 1521.15 1159.28C1520.74 1156.61 1521.35 1154.24 1522.78 1152.39ZM1742.93 1168.54C1739.24 1162.06 1733.81 1158.15 1726.54 1156.61C1724.59 1156.2 1722.75 1155.99 1721 1155.99C1711.17 1155.99 1703.18 1161.13 1696.93 1171.42C1691.6 1180.16 1688.94 1189.83 1688.94 1200.42C1688.94 1208.34 1690.58 1215.13 1693.86 1220.78C1697.55 1227.26 1702.98 1231.17 1710.25 1232.71C1712.19 1233.13 1714.04 1233.33 1715.78 1233.33C1725.72 1233.33 1733.71 1228.19 1739.85 1217.9C1745.18 1209.06 1747.84 1199.39 1747.84 1188.8C1747.95 1180.78 1746.2 1174.09 1742.93 1168.54ZM1730.02 1197.03C1728.58 1203.81 1726.02 1208.85 1722.23 1212.25C1719.26 1214.92 1716.5 1216.05 1713.94 1215.54C1711.48 1215.02 1709.43 1212.86 1707.89 1208.85C1706.66 1205.66 1706.05 1202.48 1706.05 1199.49C1706.05 1196.92 1706.25 1194.35 1706.77 1191.99C1707.69 1187.77 1709.43 1183.66 1712.19 1179.75C1715.58 1174.71 1719.16 1172.65 1722.85 1173.37C1725.31 1173.89 1727.36 1176.05 1728.89 1180.06C1730.12 1183.24 1730.74 1186.43 1730.74 1189.42C1730.74 1192.09 1730.53 1194.66 1730.02 1197.03ZM1678.8 1168.54C1675.11 1162.06 1669.58 1158.15 1662.41 1156.61C1660.46 1156.2 1658.62 1155.99 1656.88 1155.99C1647.04 1155.99 1639.05 1161.13 1632.8 1171.42C1627.48 1180.16 1624.81 1189.83 1624.81 1200.42C1624.81 1208.34 1626.45 1215.13 1629.73 1220.78C1633.42 1227.26 1638.85 1231.17 1646.12 1232.71C1648.07 1233.13 1649.91 1233.33 1651.65 1233.33C1661.59 1233.33 1669.58 1228.19 1675.73 1217.9C1681.05 1209.06 1683.72 1199.39 1683.72 1188.8C1683.72 1180.78 1682.08 1174.09 1678.8 1168.54ZM1665.79 1197.03C1664.36 1203.81 1661.79 1208.85 1658 1212.25C1655.03 1214.92 1652.27 1216.05 1649.71 1215.54C1647.25 1215.02 1645.2 1212.86 1643.66 1208.85C1642.43 1205.66 1641.82 1202.48 1641.82 1199.49C1641.82 1196.92 1642.02 1194.35 1642.54 1191.99C1643.46 1187.77 1645.2 1183.66 1647.97 1179.75C1651.35 1174.71 1654.93 1172.65 1658.62 1173.37C1661.08 1173.89 1663.13 1176.05 1664.66 1180.06C1665.89 1183.24 1666.51 1186.43 1666.51 1189.42C1666.61 1192.09 1666.3 1194.66 1665.79 1197.03Z" fill="white"/>
</g>
<circle id="Ellipse 33" cx="1623.93" cy="1194.5" r="200.5" stroke="#F5F5F5" stroke-width="6"/>
</g>
<path id="arrow-woocommerce" d="M1424.93 1175C1433.77 1175 1440.93 1182.16 1440.93 1191C1440.93 1199.84 1433.77 1207 1424.93 1207C1417.19 1207 1410.73 1201.5 1409.25 1194.19L588.969 1204.14L589.143 1218.46L558.935 1201.5L588.723 1183.82L588.896 1198.14L1409.18 1188.19C1410.51 1180.69 1417.06 1175 1424.93 1175Z" fill="#F5F5F5"/>
</g>
<g id="bigcommerce">
<g id="bigcommerce-logo">
<path id="Vector_3" d="M1495.73 1727.46H1527.64C1536.72 1727.46 1542.47 1722.49 1542.47 1714.5C1542.47 1706.97 1536.72 1701.54 1527.64 1701.54H1495.73C1494.68 1701.54 1493.76 1702.44 1493.76 1703.35V1725.66C1493.92 1726.71 1494.67 1727.46 1495.73 1727.46ZM1495.73 1778.87H1528.71C1538.84 1778.87 1544.89 1773.75 1544.89 1764.7C1544.89 1756.86 1539.15 1750.52 1528.71 1750.52H1495.73C1494.68 1750.52 1493.76 1751.44 1493.76 1752.34V1776.91C1493.92 1778.12 1494.67 1778.87 1495.73 1778.87ZM1612.48 1584.56L1518.1 1678.32H1533.54C1557.58 1678.32 1571.8 1693.39 1571.8 1709.82C1571.8 1722.79 1563.03 1732.29 1553.65 1736.5C1552.14 1737.11 1552.14 1739.22 1553.8 1739.82C1564.69 1744.04 1572.4 1755.36 1572.4 1768.61C1572.4 1787.3 1559.86 1802.23 1535.51 1802.23H1468.65C1467.6 1802.23 1466.68 1801.33 1466.68 1800.43V1729.43L1363.09 1832.22C1361.72 1833.59 1362.64 1835.99 1364.6 1835.99H1613.71C1614.15 1835.99 1614.57 1835.81 1614.88 1835.5C1615.19 1835.19 1615.37 1834.77 1615.37 1834.33V1585.91C1615.83 1584.25 1613.71 1583.35 1612.49 1584.55L1612.48 1584.56Z" fill="black"/>
<circle id="Ellipse 34" cx="1488.93" cy="1709.5" r="200.5" stroke="#F5F5F5" stroke-width="6"/>
</g>
<path id="arrow-bigcommerce" d="M313.635 1575.21C308.087 1661.55 365.091 1719.33 425.136 1719.32L1273.42 1719.33C1274.38 1724.31 1277.68 1728.76 1282.67 1730.96C1290.76 1734.53 1300.2 1730.87 1303.77 1722.79C1307.34 1714.71 1303.68 1705.26 1295.6 1701.69C1287.52 1698.12 1278.07 1701.78 1274.5 1709.86C1274 1711 1273.64 1712.16 1273.42 1713.33L425.136 1713.32C369.193 1713.33 314.22 1659.13 319.628 1575.52L319.632 1575.45L319.633 1575.39L321.476 1489.88L335.794 1490.19L319.124 1459.82L301.161 1489.44L315.477 1489.75L313.635 1575.21Z" fill="#F5F5F5"/>
</g>
<g id="salesforce">
<g id="salesforce-logo">
<g id="Group">
<path id="Vector_4" d="M1170.2 2146.29C1178.32 2137.8 1189.62 2132.53 1202.12 2132.53C1218.74 2132.53 1233.24 2141.84 1240.96 2155.65C1247.67 2152.64 1255.1 2150.96 1262.91 2150.96C1292.88 2150.96 1317.18 2175.57 1317.18 2205.93C1317.18 2236.29 1292.88 2260.89 1262.91 2260.89C1259.25 2260.89 1255.68 2260.53 1252.22 2259.82C1245.42 2272 1232.46 2280.23 1217.59 2280.23C1211.37 2280.23 1205.48 2278.78 1200.23 2276.22C1193.34 2292.49 1177.28 2303.91 1158.57 2303.91C1139.08 2303.91 1122.47 2291.53 1116.09 2274.16C1113.3 2274.76 1110.42 2275.07 1107.45 2275.07C1084.25 2275.07 1065.43 2255.98 1065.43 2232.44C1065.43 2216.66 1073.89 2202.89 1086.45 2195.52C1083.86 2189.55 1082.42 2182.95 1082.42 2176.02C1082.42 2148.95 1104.32 2127 1131.32 2127C1147.17 2127 1161.26 2134.57 1170.2 2146.29Z" fill="#00A1E0"/>
<path id="Vector_5" d="M1101.9 2218.74C1101.74 2219.15 1101.96 2219.24 1102.01 2219.31C1102.48 2219.66 1102.96 2219.91 1103.44 2220.18C1106.01 2221.55 1108.44 2221.95 1110.97 2221.95C1116.13 2221.95 1119.34 2219.19 1119.34 2214.75V2214.67C1119.34 2210.56 1115.72 2209.07 1112.33 2208L1111.89 2207.85C1109.32 2207.02 1107.12 2206.3 1107.12 2204.6V2204.51C1107.12 2203.07 1108.41 2202 1110.41 2202C1112.63 2202 1115.27 2202.74 1116.97 2203.69C1116.97 2203.69 1117.47 2204.01 1117.65 2203.52C1117.75 2203.26 1118.61 2200.94 1118.7 2200.69C1118.8 2200.41 1118.63 2200.21 1118.45 2200.1C1116.51 2198.92 1113.83 2198.11 1111.05 2198.11L1110.54 2198.11C1105.81 2198.11 1102.51 2200.98 1102.51 2205.09V2205.17C1102.51 2209.5 1106.15 2210.91 1109.56 2211.89L1110.11 2212.06C1112.6 2212.82 1114.74 2213.48 1114.74 2215.24V2215.33C1114.74 2216.93 1113.34 2218.13 1111.1 2218.13C1110.23 2218.13 1107.45 2218.11 1104.45 2216.2C1104.09 2215.99 1103.87 2215.84 1103.59 2215.67C1103.45 2215.57 1103.08 2215.41 1102.92 2215.9L1101.9 2218.74Z" fill="white"/>
<path id="Vector_6" d="M1177.5 2218.74C1177.34 2219.15 1177.55 2219.24 1177.6 2219.31C1178.08 2219.66 1178.56 2219.91 1179.04 2220.18C1181.61 2221.55 1184.03 2221.95 1186.57 2221.95C1191.73 2221.95 1194.94 2219.19 1194.94 2214.75V2214.67C1194.94 2210.56 1191.32 2209.07 1187.93 2208L1187.48 2207.85C1184.92 2207.02 1182.72 2206.3 1182.72 2204.6V2204.51C1182.72 2203.07 1184.01 2202 1186.01 2202C1188.23 2202 1190.87 2202.74 1192.57 2203.69C1192.57 2203.69 1193.07 2204.01 1193.25 2203.52C1193.35 2203.26 1194.21 2200.94 1194.3 2200.69C1194.4 2200.41 1194.23 2200.21 1194.05 2200.1C1192.11 2198.92 1189.43 2198.11 1186.65 2198.11L1186.14 2198.11C1181.41 2198.11 1178.11 2200.98 1178.11 2205.09V2205.17C1178.11 2209.5 1181.75 2210.91 1185.16 2211.89L1185.71 2212.06C1188.19 2212.82 1190.34 2213.48 1190.34 2215.24V2215.33C1190.34 2216.93 1188.94 2218.13 1186.7 2218.13C1185.83 2218.13 1183.05 2218.11 1180.05 2216.2C1179.68 2215.99 1179.47 2215.84 1179.2 2215.67C1179.1 2215.61 1178.67 2215.44 1178.52 2215.9L1177.5 2218.74Z" fill="white"/>
<path id="Vector_7" d="M1229.11 2210.04C1229.11 2212.55 1228.64 2214.53 1227.72 2215.93C1226.82 2217.31 1225.44 2217.98 1223.53 2217.98C1221.61 2217.98 1220.24 2217.31 1219.35 2215.93C1218.45 2214.53 1217.99 2212.55 1217.99 2210.04C1217.99 2207.54 1218.45 2205.56 1219.35 2204.18C1220.24 2202.81 1221.61 2202.15 1223.53 2202.15C1225.44 2202.15 1226.82 2202.81 1227.73 2204.18C1228.64 2205.56 1229.11 2207.54 1229.11 2210.04ZM1233.42 2205.39C1232.99 2203.96 1232.33 2202.69 1231.46 2201.63C1230.58 2200.57 1229.47 2199.72 1228.15 2199.11C1226.83 2198.49 1225.27 2198.18 1223.53 2198.18C1221.78 2198.18 1220.22 2198.49 1218.9 2199.11C1217.58 2199.72 1216.47 2200.57 1215.59 2201.63C1214.72 2202.69 1214.06 2203.96 1213.63 2205.39C1213.21 2206.82 1213 2208.38 1213 2210.04C1213 2211.7 1213.21 2213.27 1213.63 2214.7C1214.06 2216.13 1214.71 2217.4 1215.59 2218.45C1216.47 2219.51 1217.59 2220.36 1218.9 2220.96C1220.22 2221.56 1221.78 2221.87 1223.53 2221.87C1225.27 2221.87 1226.83 2221.56 1228.15 2220.96C1229.46 2220.36 1230.58 2219.51 1231.46 2218.45C1232.33 2217.4 1232.99 2216.13 1233.42 2214.7C1233.84 2213.27 1234.05 2211.7 1234.05 2210.04C1234.05 2208.39 1233.84 2206.82 1233.42 2205.39Z" fill="white"/>
<path id="Vector_8" d="M1268.82 2217.31C1268.67 2216.89 1268.27 2217.05 1268.27 2217.05C1267.64 2217.29 1266.97 2217.51 1266.26 2217.63C1265.54 2217.74 1264.75 2217.79 1263.9 2217.79C1261.81 2217.79 1260.16 2217.17 1258.97 2215.94C1257.78 2214.71 1257.11 2212.72 1257.12 2210.03C1257.13 2207.57 1257.71 2205.73 1258.77 2204.33C1259.82 2202.93 1261.42 2202.21 1263.56 2202.21C1265.33 2202.21 1266.69 2202.42 1268.11 2202.87C1268.11 2202.87 1268.45 2203.02 1268.61 2202.57C1268.99 2201.52 1269.27 2200.76 1269.67 2199.61C1269.78 2199.28 1269.5 2199.14 1269.4 2199.1C1268.84 2198.88 1267.53 2198.53 1266.53 2198.37C1265.6 2198.23 1264.51 2198.15 1263.29 2198.15C1261.48 2198.15 1259.87 2198.46 1258.49 2199.08C1257.11 2199.7 1255.94 2200.55 1255.02 2201.61C1254.09 2202.67 1253.39 2203.93 1252.92 2205.37C1252.45 2206.8 1252.22 2208.37 1252.22 2210.03C1252.22 2213.61 1253.18 2216.52 1255.08 2218.64C1256.99 2220.77 1259.86 2221.86 1263.59 2221.86C1265.8 2221.86 1268.07 2221.41 1269.7 2220.76C1269.7 2220.76 1270.01 2220.61 1269.87 2220.25L1268.82 2217.31Z" fill="white"/>
<path id="Vector_9" d="M1276.36 2207.64C1276.56 2206.25 1276.95 2205.09 1277.54 2204.18C1278.43 2202.81 1279.79 2202.06 1281.71 2202.06C1283.62 2202.06 1284.89 2202.82 1285.8 2204.18C1286.4 2205.09 1286.66 2206.3 1286.76 2207.64H1276.36ZM1290.87 2204.58C1290.5 2203.19 1289.6 2201.79 1289 2201.15C1288.06 2200.13 1287.14 2199.42 1286.23 2199.03C1285.04 2198.52 1283.62 2198.18 1282.05 2198.18C1280.23 2198.18 1278.58 2198.48 1277.24 2199.12C1275.89 2199.75 1274.76 2200.62 1273.88 2201.69C1272.99 2202.76 1272.32 2204.04 1271.9 2205.49C1271.47 2206.94 1271.26 2208.51 1271.26 2210.17C1271.26 2211.86 1271.48 2213.43 1271.92 2214.85C1272.37 2216.27 1273.08 2217.53 1274.04 2218.57C1274.99 2219.62 1276.23 2220.44 1277.71 2221.01C1279.17 2221.58 1280.95 2221.88 1283 2221.87C1287.22 2221.86 1289.44 2220.91 1290.35 2220.41C1290.51 2220.32 1290.67 2220.16 1290.47 2219.7L1289.52 2217.02C1289.38 2216.62 1288.97 2216.77 1288.97 2216.77C1287.93 2217.16 1286.44 2217.86 1282.98 2217.85C1280.72 2217.85 1279.04 2217.18 1277.99 2216.13C1276.91 2215.06 1276.38 2213.48 1276.29 2211.25L1290.88 2211.27C1290.88 2211.27 1291.26 2211.26 1291.3 2210.89C1291.32 2210.73 1291.81 2207.88 1290.87 2204.58Z" fill="white"/>
<path id="Vector_10" d="M1159.5 2207.64C1159.7 2206.25 1160.09 2205.09 1160.68 2204.18C1161.57 2202.81 1162.93 2202.06 1164.85 2202.06C1166.76 2202.06 1168.03 2202.82 1168.94 2204.18C1169.54 2205.09 1169.8 2206.3 1169.9 2207.64H1159.5ZM1174.01 2204.58C1173.64 2203.19 1172.74 2201.79 1172.14 2201.15C1171.2 2200.13 1170.28 2199.42 1169.37 2199.03C1168.18 2198.52 1166.76 2198.18 1165.19 2198.18C1163.37 2198.18 1161.72 2198.48 1160.38 2199.12C1159.03 2199.75 1157.9 2200.62 1157.02 2201.69C1156.13 2202.76 1155.46 2204.04 1155.04 2205.49C1154.62 2206.94 1154.4 2208.51 1154.4 2210.17C1154.4 2211.86 1154.62 2213.43 1155.06 2214.85C1155.51 2216.27 1156.22 2217.53 1157.18 2218.57C1158.13 2219.62 1159.37 2220.44 1160.85 2221.01C1162.31 2221.58 1164.09 2221.88 1166.14 2221.87C1170.36 2221.86 1172.58 2220.91 1173.49 2220.41C1173.65 2220.32 1173.81 2220.16 1173.61 2219.7L1172.66 2217.02C1172.51 2216.62 1172.11 2216.77 1172.11 2216.77C1171.07 2217.16 1169.58 2217.86 1166.12 2217.85C1163.86 2217.85 1162.18 2217.18 1161.13 2216.13C1160.05 2215.06 1159.52 2213.48 1159.43 2211.25L1174.02 2211.27C1174.02 2211.27 1174.4 2211.26 1174.44 2210.89C1174.46 2210.73 1174.95 2207.88 1174.01 2204.58Z" fill="white"/>
<path id="Vector_11" d="M1127.96 2217.23C1127.39 2216.78 1127.31 2216.66 1127.11 2216.36C1126.83 2215.91 1126.68 2215.27 1126.68 2214.46C1126.68 2213.17 1127.1 2212.25 1127.98 2211.62C1127.97 2211.63 1129.24 2210.52 1132.21 2210.56C1134.3 2210.59 1136.17 2210.9 1136.17 2210.9V2217.56H1136.18C1136.18 2217.56 1134.32 2217.96 1132.23 2218.09C1129.26 2218.27 1127.95 2217.23 1127.96 2217.23ZM1133.76 2206.94C1133.17 2206.9 1132.4 2206.87 1131.48 2206.87C1130.23 2206.87 1129.02 2207.03 1127.89 2207.33C1126.75 2207.64 1125.73 2208.12 1124.84 2208.75C1123.96 2209.39 1123.24 2210.2 1122.73 2211.17C1122.21 2212.13 1121.95 2213.27 1121.95 2214.55C1121.95 2215.84 1122.17 2216.97 1122.62 2217.89C1123.06 2218.82 1123.7 2219.59 1124.52 2220.18C1125.33 2220.78 1126.33 2221.21 1127.49 2221.47C1128.64 2221.74 1129.94 2221.87 1131.36 2221.87C1132.85 2221.87 1134.34 2221.75 1135.79 2221.5C1137.22 2221.25 1138.98 2220.9 1139.46 2220.79C1139.95 2220.67 1140.49 2220.52 1140.49 2220.52C1140.85 2220.43 1140.82 2220.04 1140.82 2220.04L1140.81 2206.65C1140.81 2203.71 1140.03 2201.53 1138.49 2200.18C1136.96 2198.83 1134.71 2198.15 1131.79 2198.15C1130.7 2198.15 1128.94 2198.31 1127.88 2198.52C1127.88 2198.52 1124.69 2199.14 1123.38 2200.17C1123.38 2200.17 1123.09 2200.35 1123.25 2200.75L1124.28 2203.54C1124.41 2203.9 1124.76 2203.77 1124.76 2203.77C1124.76 2203.77 1124.87 2203.73 1125 2203.66C1127.81 2202.12 1131.36 2202.17 1131.36 2202.17C1132.94 2202.17 1134.15 2202.49 1134.97 2203.12C1135.76 2203.73 1136.17 2204.65 1136.17 2206.6V2207.22C1134.91 2207.04 1133.76 2206.94 1133.76 2206.94Z" fill="white"/>
<path id="Vector_12" d="M1251.45 2199.39C1251.56 2199.06 1251.33 2198.9 1251.23 2198.86C1250.99 2198.77 1249.75 2198.5 1248.79 2198.44C1246.96 2198.33 1245.94 2198.64 1245.03 2199.05C1244.12 2199.46 1243.12 2200.12 1242.56 2200.88V2199.09C1242.56 2198.85 1242.38 2198.65 1242.14 2198.65H1238.4C1238.16 2198.65 1237.98 2198.85 1237.98 2199.09V2220.95C1237.98 2221.19 1238.18 2221.39 1238.42 2221.39H1242.26C1242.5 2221.39 1242.7 2221.19 1242.7 2220.95V2210.03C1242.7 2208.56 1242.86 2207.1 1243.18 2206.18C1243.5 2205.28 1243.93 2204.55 1244.46 2204.03C1244.99 2203.51 1245.6 2203.15 1246.26 2202.94C1246.94 2202.73 1247.69 2202.66 1248.22 2202.66C1248.99 2202.66 1249.82 2202.86 1249.82 2202.86C1250.1 2202.89 1250.26 2202.72 1250.36 2202.46C1250.61 2201.8 1251.32 2199.79 1251.45 2199.39Z" fill="white"/>
<path id="Vector_13" d="M1215.47 2189.26C1215 2189.12 1214.58 2189.02 1214.03 2188.92C1213.47 2188.82 1212.8 2188.77 1212.04 2188.77C1209.41 2188.77 1207.33 2189.52 1205.87 2190.99C1204.41 2192.46 1203.43 2194.7 1202.93 2197.64L1202.75 2198.63H1199.44C1199.44 2198.63 1199.04 2198.61 1198.95 2199.05L1198.41 2202.1C1198.37 2202.39 1198.5 2202.57 1198.88 2202.57H1202.11L1198.84 2220.91C1198.58 2222.38 1198.29 2223.6 1197.96 2224.52C1197.64 2225.43 1197.33 2226.11 1196.94 2226.6C1196.57 2227.08 1196.22 2227.43 1195.61 2227.64C1195.11 2227.81 1194.53 2227.88 1193.89 2227.88C1193.54 2227.88 1193.07 2227.83 1192.72 2227.75C1192.38 2227.69 1192.2 2227.61 1191.93 2227.5C1191.93 2227.5 1191.56 2227.36 1191.41 2227.73C1191.29 2228.05 1190.43 2230.42 1190.32 2230.71C1190.22 2231 1190.37 2231.23 1190.55 2231.3C1190.98 2231.45 1191.3 2231.55 1191.88 2231.69C1192.69 2231.88 1193.38 2231.89 1194.02 2231.89C1195.36 2231.89 1196.59 2231.7 1197.6 2231.33C1198.62 2230.96 1199.51 2230.32 1200.3 2229.45C1201.15 2228.5 1201.68 2227.52 1202.19 2226.17C1202.7 2224.83 1203.13 2223.18 1203.48 2221.25L1206.77 2202.57H1211.57C1211.57 2202.57 1211.98 2202.59 1212.06 2202.15L1212.6 2199.1C1212.64 2198.81 1212.52 2198.63 1212.13 2198.63H1207.46C1207.49 2198.52 1207.7 2196.87 1208.23 2195.32C1208.46 2194.66 1208.89 2194.13 1209.25 2193.76C1209.61 2193.4 1210.03 2193.14 1210.48 2193C1210.94 2192.85 1211.47 2192.77 1212.04 2192.77C1212.48 2192.77 1212.92 2192.82 1213.24 2192.89C1213.69 2192.99 1213.87 2193.04 1213.99 2193.08C1214.47 2193.22 1214.53 2193.08 1214.62 2192.85L1215.74 2189.77C1215.85 2189.44 1215.57 2189.3 1215.47 2189.26Z" fill="white"/>
<path id="Vector_14" d="M1150.28 2220.95C1150.28 2221.19 1150.11 2221.39 1149.86 2221.39H1145.99C1145.75 2221.39 1145.58 2221.19 1145.58 2220.95V2189.68C1145.58 2189.44 1145.75 2189.24 1145.99 2189.24H1149.86C1150.11 2189.24 1150.28 2189.44 1150.28 2189.68V2220.95Z" fill="white"/>
</g>
<circle id="Ellipse 35" cx="1190.93" cy="2215.5" r="200.5" stroke="#F5F5F5" stroke-width="6"/>
</g>
<path id="arrow-salesforce" d="M396.798 2112.68C440.622 2163.84 505.458 2193.36 599.705 2210.13C690.857 2226.35 809.924 2230.72 964.864 2230.99C965.817 2235.98 969.122 2240.43 974.12 2242.64C982.203 2246.21 991.65 2242.55 995.22 2234.46C998.789 2226.38 995.13 2216.93 987.047 2213.36C978.964 2209.79 969.517 2213.45 965.947 2221.54C965.448 2222.67 965.09 2223.82 964.866 2224.99C809.932 2224.72 691.343 2220.34 600.756 2204.22C507.167 2187.57 443.9 2158.45 401.355 2108.78C358.764 2059.05 336.537 1988.27 326.109 1887.37C315.743 1787.07 317.076 1657.48 321.306 1490.07L335.619 1490.44L319.082 1460L300.99 1489.54L315.307 1489.91C311.079 1657.26 309.728 1787.24 320.141 1887.99C330.612 1989.31 353.019 2061.57 396.798 2112.68Z" fill="#F5F5F5"/>
<path id="arrow-salesforce-shadow" d="M396.797 2112.54C440.621 2163.71 505.457 2193.22 599.704 2209.99C690.856 2226.22 809.923 2230.58 964.863 2230.85C965.816 2235.84 969.122 2240.29 974.119 2242.5C982.202 2246.07 991.649 2242.41 995.219 2234.33C998.789 2226.24 995.13 2216.8 987.046 2213.23C978.963 2209.66 969.516 2213.32 965.946 2221.4C965.447 2222.53 965.089 2223.69 964.865 2224.85C809.931 2224.58 691.342 2220.21 600.756 2204.09C507.166 2187.43 443.899 2158.31 401.354 2108.64C358.763 2058.92 336.536 1988.14 326.108 1887.24C318.801 1816.54 317.307 1731.29 318.543 1628.5L316.214 1618.11L315.278 1612.82L314.518 1607.48L313.723 1599.49L313.72 1599.44L313.518 1596.23L313.366 1592.98L313.304 1590.61L313.086 1591.5C313.082 1591.72 313.078 1591.95 313.074 1592.17C311.039 1711.42 311.956 1808.67 320.14 1887.86C330.612 1989.18 353.018 2061.43 396.797 2112.54Z" fill="#F5F5F5"/>
</g>
<g id="magento">
<g id="magento-logo">
<g id="5151e0c8492e5103c096af88a51f602c">
<path id="Vector_15" d="M1595.45 619.312V739.194L1566.89 756.57V635.819L1566.51 635.578L1488.51 586.88L1410.31 635.619L1409.99 635.818V756.279L1381.43 739.194V619.312L1381.61 619.207L1488.51 553L1595.28 619.207L1595.45 619.312ZM1504.02 671.136V769.889L1488.51 779.735L1472.87 769.889V671.391V629.447L1437.97 651.164V651.437V773.944L1488.51 805.506L1538.91 773.944V651.28V651.164L1504.02 629.448V671.136H1504.02Z" fill="#E94E4E"/>
</g>
<circle id="Ellipse 31" cx="1488.93" cy="679.5" r="200.5" stroke="#F5F5F5" stroke-width="6"/>
</g>
<path id="arrow-magento" d="M313.446 853.114C307.897 766.771 364.902 708.995 424.946 708.996L1273.23 708.994C1274.19 704.011 1277.49 699.564 1282.48 697.359C1290.57 693.789 1300.01 697.448 1303.58 705.532C1307.15 713.615 1303.49 723.062 1295.41 726.632C1287.33 730.201 1277.88 726.542 1274.31 718.459C1273.81 717.324 1273.45 716.163 1273.23 714.994L424.946 714.995C369.003 714.995 314.03 769.19 319.438 852.803L319.442 852.867L319.444 852.932L321.287 938.442L335.604 938.134L318.934 968.5L300.972 938.881L315.288 938.572L313.446 853.114Z" fill="#F5F5F5"/>
</g>
<g id="shopify">
<g id="shopify-logo">
<g id="Group_2">
<path id="Vector_16" d="M1274.29 127.006C1274.12 125.741 1273.01 125.041 1272.09 124.964C1271.18 124.887 1251.83 123.454 1251.83 123.454C1251.83 123.454 1238.4 110.115 1236.92 108.639C1235.45 107.163 1232.56 107.612 1231.45 107.941C1231.28 107.99 1228.51 108.845 1223.93 110.263C1219.44 97.3482 1211.52 85.4793 1197.58 85.4793C1197.2 85.4793 1196.8 85.4954 1196.41 85.5177C1192.44 80.2767 1187.53 78 1183.29 78C1150.83 78 1135.32 118.579 1130.46 139.201C1117.85 143.109 1108.89 145.888 1107.74 146.247C1100.7 148.455 1100.48 148.678 1099.56 155.312C1098.86 160.334 1080.44 302.802 1080.44 302.802L1223.99 329.699L1301.77 312.872C1301.77 312.872 1274.46 128.272 1274.29 127.006ZM1215.99 112.717C1212.39 113.833 1208.29 115.101 1203.85 116.476C1203.85 115.621 1203.85 114.778 1203.85 113.858C1203.85 105.83 1202.74 99.3681 1200.95 94.2445C1208.13 95.1463 1212.91 103.315 1215.99 112.717ZM1192.05 95.8358C1194.04 100.838 1195.34 108.016 1195.34 117.703C1195.34 118.199 1195.34 118.652 1195.33 119.111C1187.43 121.557 1178.85 124.214 1170.25 126.879C1175.08 108.236 1184.13 99.2327 1192.05 95.8358ZM1182.4 86.7066C1183.8 86.7066 1185.21 87.1818 1186.56 88.1119C1176.16 93.007 1165.01 105.337 1160.3 129.958C1153.42 132.09 1146.69 134.172 1140.47 136.099C1145.99 117.319 1159.09 86.7066 1182.4 86.7066Z" fill="#95BF46"/>
<path id="Vector_17" d="M1272.09 124.964C1271.18 124.887 1251.83 123.454 1251.83 123.454C1251.83 123.454 1238.4 110.115 1236.92 108.639C1236.37 108.089 1235.63 107.808 1234.85 107.687L1223.99 329.697L1301.77 312.872C1301.77 312.872 1274.46 128.272 1274.29 127.006C1274.12 125.741 1273.01 125.041 1272.09 124.964Z" fill="#5E8E3E"/>
<path id="Vector_18" d="M1197.58 167.941L1187.99 196.469C1187.99 196.469 1179.59 191.984 1169.29 191.984C1154.19 191.984 1153.43 201.461 1153.43 203.849C1153.43 216.879 1187.39 221.871 1187.39 252.39C1187.39 276.401 1172.16 291.863 1151.63 291.863C1126.99 291.863 1114.39 276.527 1114.39 276.527L1120.98 254.728C1120.98 254.728 1133.94 265.849 1144.87 265.849C1152.01 265.849 1154.92 260.226 1154.92 256.117C1154.92 239.12 1127.05 238.362 1127.05 210.435C1127.05 186.929 1143.92 164.182 1177.98 164.182C1191.1 164.182 1197.58 167.941 1197.58 167.941Z" fill="white"/>
</g>
<circle id="Ellipse 32" cx="1190.94" cy="203.5" r="200.5" stroke="#F5F5F5" stroke-width="6"/>
</g>
<path id="arrow-shopify-shadow" d="M401.564 318.887C446.689 268.426 512.801 239.6 607.994 223.337C700.068 207.607 819.756 203.569 974.734 203.323C975.687 198.334 978.993 193.881 983.99 191.674C992.074 188.104 1001.52 191.763 1005.09 199.847C1008.66 207.93 1005 217.377 996.918 220.947C988.834 224.516 979.387 220.857 975.818 212.774C975.318 211.644 974.96 210.486 974.736 209.322C819.758 209.568 700.532 213.615 609.004 229.251C514.435 245.407 449.87 273.869 406.036 322.886C362.17 371.939 338.654 442.03 327.235 542.386C315.882 642.157 316.528 771.375 320.684 938.743L334.997 938.375L318.454 968.81L300.367 939.266L314.685 938.897C310.531 771.577 309.867 641.954 321.273 541.708C332.746 440.888 356.471 369.312 401.564 318.887Z" fill="#F5F5F5"/>
<path id="arrow-shopify" d="M401.446 319.238C446.571 268.778 512.683 239.951 607.876 223.688C699.95 207.958 819.638 203.92 974.616 203.674C975.569 198.686 978.875 194.232 983.872 192.025C991.956 188.456 1001.4 192.115 1004.97 200.198C1008.54 208.281 1004.88 217.728 996.799 221.298C988.716 224.868 979.269 221.208 975.699 213.125C975.2 211.995 974.842 210.837 974.618 209.673C819.639 209.92 700.414 213.966 608.886 229.602C514.317 245.758 449.752 274.221 405.918 323.237C362.052 372.29 338.536 442.382 327.117 542.737C319.105 613.142 317.069 698.21 318.025 801L313.5 828L312.024 801C311.068 698.118 313.108 612.779 321.155 542.06C332.627 441.239 356.353 369.663 401.446 319.238Z" fill="#F5F5F5"/>
</g>
<g id="logo">
<g id="Ellipse 29" filter="url(#filter0_d_84_140)">
<circle cx="299.935" cy="1218.5" r="203.5" fill="white"/>
</g>
<g id="logo-icon">
<rect id="Rectangle 9" x="231.419" y="1151.01" width="65.5949" height="67.0773" fill="#E15E33"/>
<rect id="Rectangle 13" x="231.419" y="1219.94" width="65.5949" height="67.0773" fill="#7652EB"/>
<path id="Rectangle 16" d="M299.237 1219.94L336.297 1256.41L367.426 1287.01H299.237V1219.94Z" fill="#3F4CB3"/>
<path id="Rectangle 10" d="M299.237 1151.01H325.364C343.887 1151.01 358.903 1166.02 358.903 1184.55C358.903 1203.07 343.887 1218.08 325.364 1218.08H299.237V1151.01Z" fill="#448DFD"/>
</g>
</g>
</g>
<defs>
<filter id="filter0_d_84_140" x="0.43457" y="934" width="599" height="599" filterUnits="userSpaceOnUse" color-interpolation-filters="sRGB">
<feFlood flood-opacity="0" result="BackgroundImageFix"/>
<feColorMatrix in="SourceAlpha" type="matrix" values="0 0 0 0 0 0 0 0 0 0 0 0 0 0 0 0 0 0 127 0" result="hardAlpha"/>
<feMorphology radius="4" operator="erode" in="SourceAlpha" result="effect1_dropShadow_84_140"/>
<feOffset dy="15"/>
<feGaussianBlur stdDeviation="50"/>
<feComposite in2="hardAlpha" operator="out"/>
<feColorMatrix type="matrix" values="0 0 0 0 0 0 0 0 0 0 0 0 0 0 0 0 0 0 0.1 0"/>
<feBlend mode="normal" in2="BackgroundImageFix" result="effect1_dropShadow_84_140"/>
<feBlend mode="normal" in="SourceGraphic" in2="effect1_dropShadow_84_140" result="shape"/>
</filter>
</defs>
</svg>
