<svg width="1827" height="2419" viewBox="0 0 1827 2419" fill="none" xmlns="http://www.w3.org/2000/svg">
<g id="e-commerce platform">
<g id="woocommerce">
<g id="woocommerce-logo">
<g id="Group 5">
<path id="Vector" d="M1531.39 1130.9H1736.51C1749.49 1130.9 1760 1141.45 1760 1154.48V1233.09C1760 1246.12 1749.49 1256.67 1736.51 1256.67H1662.95L1673.05 1281.5L1628.64 1256.67H1531.49C1518.51 1256.67 1508 1246.12 1508 1233.09V1154.48C1507.9 1141.55 1518.4 1130.9 1531.39 1130.9Z" fill="#9B5C8F"/>
<path id="Vector_2" d="M1522.35 1152.39C1523.78 1150.44 1525.94 1149.41 1528.8 1149.2C1534.03 1148.79 1537 1151.26 1537.72 1156.61C1540.89 1178.1 1544.37 1196.31 1548.06 1211.22L1570.5 1168.33C1572.55 1164.42 1575.11 1162.37 1578.18 1162.16C1582.69 1161.85 1585.45 1164.73 1586.58 1170.8C1589.14 1184.48 1592.42 1196.1 1596.31 1205.97C1598.97 1179.85 1603.48 1161.03 1609.83 1149.41C1611.37 1146.53 1613.62 1145.09 1616.59 1144.88C1618.95 1144.68 1621.1 1145.4 1623.05 1146.94C1624.99 1148.48 1626.02 1150.44 1626.22 1152.8C1626.33 1154.65 1626.02 1156.2 1625.2 1157.74C1621.2 1165.14 1617.92 1177.59 1615.26 1194.87C1612.7 1211.63 1611.78 1224.69 1612.39 1234.05C1612.6 1236.62 1612.19 1238.88 1611.17 1240.84C1609.93 1243.1 1608.09 1244.34 1605.74 1244.54C1603.07 1244.75 1600.31 1243.51 1597.64 1240.74C1588.12 1230.96 1580.54 1216.36 1575 1196.92C1568.34 1210.09 1563.43 1219.96 1560.25 1226.54C1554.21 1238.16 1549.09 1244.13 1544.78 1244.44C1542.02 1244.64 1539.66 1242.28 1537.61 1237.34C1532.39 1223.87 1526.76 1197.85 1520.71 1159.28C1520.3 1156.61 1520.92 1154.24 1522.35 1152.39ZM1742.49 1168.54C1738.8 1162.06 1733.37 1158.15 1726.1 1156.61C1724.15 1156.2 1722.31 1155.99 1720.57 1155.99C1710.74 1155.99 1702.75 1161.13 1696.5 1171.42C1691.17 1180.16 1688.51 1189.83 1688.51 1200.42C1688.51 1208.34 1690.15 1215.13 1693.42 1220.78C1697.11 1227.26 1702.54 1231.17 1709.81 1232.71C1711.76 1233.13 1713.6 1233.33 1715.35 1233.33C1725.28 1233.33 1733.27 1228.19 1739.42 1217.9C1744.74 1209.06 1747.41 1199.39 1747.41 1188.8C1747.51 1180.78 1745.77 1174.09 1742.49 1168.54ZM1729.58 1197.03C1728.15 1203.81 1725.59 1208.85 1721.8 1212.25C1718.83 1214.92 1716.06 1216.05 1713.5 1215.54C1711.04 1215.02 1708.99 1212.86 1707.46 1208.85C1706.23 1205.66 1705.61 1202.48 1705.61 1199.49C1705.61 1196.92 1705.82 1194.35 1706.33 1191.99C1707.25 1187.77 1708.99 1183.66 1711.76 1179.75C1715.14 1174.71 1718.73 1172.65 1722.41 1173.37C1724.87 1173.89 1726.92 1176.05 1728.46 1180.06C1729.69 1183.24 1730.3 1186.43 1730.3 1189.42C1730.3 1192.09 1730.1 1194.66 1729.58 1197.03ZM1678.36 1168.54C1674.68 1162.06 1669.14 1158.15 1661.97 1156.61C1660.03 1156.2 1658.18 1155.99 1656.44 1155.99C1646.61 1155.99 1638.62 1161.13 1632.37 1171.42C1627.04 1180.16 1624.38 1189.83 1624.38 1200.42C1624.38 1208.34 1626.02 1215.13 1629.3 1220.78C1632.98 1227.26 1638.41 1231.17 1645.69 1232.71C1647.63 1233.13 1649.48 1233.33 1651.22 1233.33C1661.15 1233.33 1669.14 1228.19 1675.29 1217.9C1680.62 1209.06 1683.28 1199.39 1683.28 1188.8C1683.28 1180.78 1681.64 1174.09 1678.36 1168.54ZM1665.36 1197.03C1663.92 1203.81 1661.36 1208.85 1657.57 1212.25C1654.6 1214.92 1651.83 1216.05 1649.27 1215.54C1646.81 1215.02 1644.76 1212.86 1643.23 1208.85C1642 1205.66 1641.38 1202.48 1641.38 1199.49C1641.38 1196.92 1641.59 1194.35 1642.1 1191.99C1643.02 1187.77 1644.76 1183.66 1647.53 1179.75C1650.91 1174.71 1654.5 1172.65 1658.18 1173.37C1660.64 1173.89 1662.69 1176.05 1664.23 1180.06C1665.46 1183.24 1666.07 1186.43 1666.07 1189.42C1666.17 1192.09 1665.87 1194.66 1665.36 1197.03Z" fill="white"/>
</g>
<circle id="Ellipse 33" cx="1623.5" cy="1194.5" r="200.5" stroke="#F1F3F6" stroke-width="6"/>
</g>
<path id="arrow-woocommerce" d="M1408.5 1191C1408.5 1199.84 1415.66 1207 1424.5 1207C1433.34 1207 1440.5 1199.84 1440.5 1191C1440.5 1182.16 1433.34 1175 1424.5 1175C1415.66 1175 1408.5 1182.16 1408.5 1191ZM558.5 1201.5L588.708 1218.46L588.288 1183.82L558.5 1201.5ZM1424.5 1191L1424.46 1188L585.462 1198.17L585.498 1201.17L585.534 1204.17L1424.54 1194L1424.5 1191Z" fill="#F1F3F6"/>
</g>
<g id="bigcommerce">
<g id="bigcommerce-logo">
<path id="Vector_3" d="M1495.3 1727.46H1527.21C1536.29 1727.46 1542.03 1722.49 1542.03 1714.5C1542.03 1706.97 1536.29 1701.54 1527.21 1701.54H1495.3C1494.25 1701.54 1493.33 1702.44 1493.33 1703.35V1725.66C1493.49 1726.71 1494.24 1727.46 1495.3 1727.46ZM1495.3 1778.87H1528.27C1538.4 1778.87 1544.46 1773.75 1544.46 1764.7C1544.46 1756.86 1538.71 1750.52 1528.27 1750.52H1495.3C1494.25 1750.52 1493.33 1751.44 1493.33 1752.34V1776.91C1493.49 1778.12 1494.24 1778.87 1495.3 1778.87ZM1612.05 1584.56L1517.67 1678.32H1533.1C1557.15 1678.32 1571.37 1693.39 1571.37 1709.82C1571.37 1722.79 1562.6 1732.29 1553.22 1736.5C1551.71 1737.11 1551.71 1739.22 1553.36 1739.82C1564.25 1744.04 1571.97 1755.36 1571.97 1768.61C1571.97 1787.3 1559.42 1802.23 1535.07 1802.23H1468.22C1467.16 1802.23 1466.25 1801.33 1466.25 1800.43V1729.43L1362.65 1832.22C1361.28 1833.59 1362.2 1835.99 1364.16 1835.99H1613.27C1613.71 1835.99 1614.13 1835.81 1614.44 1835.5C1614.75 1835.19 1614.93 1834.77 1614.94 1834.33V1585.91C1615.39 1584.25 1613.27 1583.35 1612.06 1584.55L1612.05 1584.56Z" fill="black"/>
<circle id="Ellipse 34" cx="1488.5" cy="1709.5" r="200.5" stroke="#F1F3F6" stroke-width="6"/>
</g>
<path id="arrow-bigcommerce" d="M1274.07 1709.86C1277.64 1701.78 1287.08 1698.12 1295.17 1701.69C1303.25 1705.26 1306.91 1714.71 1303.34 1722.79C1299.77 1730.87 1290.32 1734.53 1282.24 1730.96C1274.16 1727.39 1270.5 1717.94 1274.07 1709.86ZM424.702 1716.32L424.702 1713.32L424.702 1713.32L424.702 1716.32ZM316.199 1575.32L319.199 1575.39L319.197 1575.45L319.193 1575.52L316.199 1575.32ZM318.689 1459.82L335.359 1490.19L300.726 1489.44L318.689 1459.82ZM1288.7 1716.33L1288.7 1719.33L424.702 1719.32L424.702 1716.32L424.702 1713.32L1288.7 1713.33L1288.7 1716.33ZM424.702 1716.32L424.702 1719.32C364.639 1719.33 307.619 1661.51 313.206 1575.13L316.199 1575.32L319.193 1575.52C313.785 1659.13 368.758 1713.33 424.702 1713.32L424.702 1716.32ZM316.199 1575.32L313.2 1575.26L315.108 1486.75L318.108 1486.81L321.107 1486.88L319.199 1575.39L316.199 1575.32Z" fill="#F1F3F6"/>
</g>
<g id="salesforce">
<g id="salesforce-logo">
<g id="Group">
<path id="Vector_4" d="M1169.76 2146.29C1177.88 2137.8 1189.18 2132.53 1201.69 2132.53C1218.3 2132.53 1232.8 2141.84 1240.52 2155.65C1247.23 2152.64 1254.66 2150.96 1262.48 2150.96C1292.45 2150.96 1316.75 2175.57 1316.75 2205.93C1316.75 2236.29 1292.45 2260.89 1262.48 2260.89C1258.82 2260.89 1255.24 2260.53 1251.78 2259.83C1244.99 2272 1232.03 2280.23 1217.16 2280.23C1210.93 2280.23 1205.04 2278.79 1199.8 2276.22C1192.91 2292.5 1176.85 2303.91 1158.13 2303.91C1138.64 2303.91 1122.03 2291.53 1115.65 2274.16C1112.87 2274.76 1109.98 2275.07 1107.02 2275.07C1083.81 2275.07 1065 2255.98 1065 2232.44C1065 2216.66 1073.45 2202.89 1086.01 2195.52C1083.43 2189.55 1081.99 2182.95 1081.99 2176.02C1081.99 2148.95 1103.88 2127 1130.88 2127C1146.74 2127 1160.83 2134.57 1169.76 2146.29Z" fill="#00A1E0"/>
<path id="Vector_5" d="M1101.46 2218.74C1101.31 2219.15 1101.52 2219.24 1101.57 2219.31C1102.04 2219.66 1102.52 2219.91 1103.01 2220.18C1105.58 2221.55 1108 2221.95 1110.54 2221.95C1115.7 2221.95 1118.91 2219.19 1118.91 2214.75V2214.67C1118.91 2210.56 1115.29 2209.07 1111.89 2208L1111.45 2207.85C1108.89 2207.02 1106.68 2206.3 1106.68 2204.61V2204.51C1106.68 2203.07 1107.97 2202 1109.97 2202C1112.2 2202 1114.84 2202.74 1116.54 2203.69C1116.54 2203.69 1117.03 2204.01 1117.22 2203.52C1117.32 2203.27 1118.18 2200.94 1118.27 2200.69C1118.36 2200.41 1118.19 2200.21 1118.02 2200.1C1116.08 2198.92 1113.39 2198.11 1110.62 2198.11L1110.1 2198.11C1105.38 2198.11 1102.08 2200.98 1102.08 2205.09V2205.17C1102.08 2209.51 1105.72 2210.91 1109.13 2211.89L1109.68 2212.06C1112.16 2212.82 1114.3 2213.48 1114.3 2215.24V2215.33C1114.3 2216.93 1112.91 2218.13 1110.67 2218.13C1109.79 2218.13 1107.01 2218.11 1104.01 2216.21C1103.65 2215.99 1103.44 2215.84 1103.16 2215.67C1103.01 2215.58 1102.64 2215.41 1102.48 2215.9L1101.46 2218.74Z" fill="white"/>
<path id="Vector_6" d="M1177.06 2218.74C1176.9 2219.15 1177.12 2219.24 1177.17 2219.31C1177.64 2219.66 1178.12 2219.91 1178.61 2220.18C1181.18 2221.55 1183.6 2221.95 1186.14 2221.95C1191.3 2221.95 1194.51 2219.19 1194.51 2214.75V2214.67C1194.51 2210.56 1190.89 2209.07 1187.49 2208L1187.05 2207.85C1184.49 2207.02 1182.28 2206.3 1182.28 2204.61V2204.51C1182.28 2203.07 1183.57 2202 1185.57 2202C1187.8 2202 1190.44 2202.74 1192.14 2203.69C1192.14 2203.69 1192.63 2204.01 1192.82 2203.52C1192.92 2203.27 1193.78 2200.94 1193.87 2200.69C1193.96 2200.41 1193.79 2200.21 1193.62 2200.1C1191.68 2198.92 1188.99 2198.11 1186.22 2198.11L1185.7 2198.11C1180.98 2198.11 1177.68 2200.98 1177.68 2205.09V2205.17C1177.68 2209.51 1181.32 2210.91 1184.73 2211.89L1185.28 2212.06C1187.76 2212.82 1189.9 2213.48 1189.9 2215.24V2215.33C1189.9 2216.93 1188.51 2218.13 1186.26 2218.13C1185.39 2218.13 1182.61 2218.11 1179.61 2216.21C1179.25 2215.99 1179.04 2215.85 1178.76 2215.67C1178.67 2215.61 1178.23 2215.44 1178.08 2215.9L1177.06 2218.74Z" fill="white"/>
<path id="Vector_7" d="M1228.67 2210.04C1228.67 2212.55 1228.21 2214.53 1227.29 2215.93C1226.38 2217.31 1225.01 2217.98 1223.09 2217.98C1221.17 2217.98 1219.81 2217.31 1218.91 2215.93C1218.01 2214.53 1217.55 2212.55 1217.55 2210.04C1217.55 2207.54 1218.01 2205.57 1218.91 2204.18C1219.81 2202.81 1221.17 2202.15 1223.09 2202.15C1225.01 2202.15 1226.38 2202.81 1227.29 2204.18C1228.21 2205.57 1228.67 2207.54 1228.67 2210.04ZM1232.98 2205.39C1232.56 2203.96 1231.9 2202.69 1231.02 2201.63C1230.14 2200.58 1229.03 2199.73 1227.71 2199.11C1226.4 2198.49 1224.84 2198.18 1223.09 2198.18C1221.34 2198.18 1219.79 2198.49 1218.47 2199.11C1217.15 2199.73 1216.04 2200.58 1215.16 2201.63C1214.28 2202.69 1213.62 2203.96 1213.19 2205.39C1212.78 2206.82 1212.56 2208.38 1212.56 2210.04C1212.56 2211.7 1212.78 2213.27 1213.19 2214.7C1213.62 2216.13 1214.28 2217.4 1215.16 2218.46C1216.04 2219.51 1217.15 2220.36 1218.47 2220.96C1219.79 2221.56 1221.34 2221.87 1223.09 2221.87C1224.84 2221.87 1226.39 2221.56 1227.71 2220.96C1229.03 2220.36 1230.14 2219.51 1231.02 2218.46C1231.9 2217.4 1232.56 2216.13 1232.98 2214.7C1233.41 2213.27 1233.62 2211.7 1233.62 2210.04C1233.62 2208.39 1233.41 2206.82 1232.98 2205.39Z" fill="white"/>
<path id="Vector_8" d="M1268.38 2217.31C1268.24 2216.89 1267.83 2217.05 1267.83 2217.05C1267.21 2217.29 1266.54 2217.51 1265.83 2217.63C1265.11 2217.74 1264.31 2217.8 1263.46 2217.8C1261.38 2217.8 1259.72 2217.17 1258.53 2215.94C1257.34 2214.71 1256.68 2212.72 1256.68 2210.03C1256.69 2207.57 1257.28 2205.73 1258.34 2204.33C1259.39 2202.93 1260.99 2202.21 1263.12 2202.21C1264.9 2202.21 1266.25 2202.42 1267.68 2202.87C1267.68 2202.87 1268.02 2203.02 1268.18 2202.57C1268.55 2201.52 1268.83 2200.77 1269.24 2199.61C1269.35 2199.28 1269.07 2199.14 1268.97 2199.1C1268.41 2198.88 1267.09 2198.53 1266.09 2198.38C1265.16 2198.23 1264.07 2198.16 1262.86 2198.16C1261.05 2198.16 1259.43 2198.47 1258.05 2199.08C1256.68 2199.7 1255.51 2200.55 1254.58 2201.61C1253.66 2202.67 1252.95 2203.93 1252.48 2205.37C1252.02 2206.8 1251.78 2208.37 1251.78 2210.03C1251.78 2213.62 1252.75 2216.52 1254.65 2218.64C1256.56 2220.77 1259.42 2221.86 1263.16 2221.86C1265.37 2221.86 1267.64 2221.41 1269.26 2220.76C1269.26 2220.76 1269.58 2220.61 1269.44 2220.25L1268.38 2217.31Z" fill="white"/>
<path id="Vector_9" d="M1275.92 2207.64C1276.13 2206.25 1276.51 2205.09 1277.1 2204.18C1278 2202.81 1279.36 2202.06 1281.27 2202.06C1283.19 2202.06 1284.45 2202.82 1285.36 2204.18C1285.96 2205.09 1286.23 2206.3 1286.33 2207.64H1275.92ZM1290.44 2204.58C1290.07 2203.19 1289.16 2201.79 1288.57 2201.15C1287.63 2200.13 1286.71 2199.42 1285.8 2199.03C1284.61 2198.52 1283.18 2198.18 1281.62 2198.18C1279.8 2198.18 1278.14 2198.48 1276.8 2199.12C1275.46 2199.75 1274.33 2200.62 1273.44 2201.69C1272.56 2202.77 1271.89 2204.04 1271.47 2205.49C1271.04 2206.94 1270.82 2208.51 1270.82 2210.17C1270.82 2211.86 1271.05 2213.43 1271.49 2214.85C1271.93 2216.27 1272.64 2217.53 1273.6 2218.57C1274.56 2219.62 1275.79 2220.44 1277.27 2221.01C1278.74 2221.58 1280.52 2221.88 1282.57 2221.87C1286.78 2221.86 1289 2220.92 1289.92 2220.41C1290.08 2220.32 1290.23 2220.16 1290.04 2219.71L1289.08 2217.02C1288.94 2216.62 1288.54 2216.77 1288.54 2216.77C1287.49 2217.16 1286.01 2217.86 1282.55 2217.85C1280.28 2217.85 1278.61 2217.18 1277.55 2216.13C1276.48 2215.06 1275.95 2213.48 1275.85 2211.26L1290.45 2211.27C1290.45 2211.27 1290.83 2211.26 1290.87 2210.89C1290.88 2210.73 1291.37 2207.88 1290.44 2204.58Z" fill="white"/>
<path id="Vector_10" d="M1159.06 2207.64C1159.27 2206.25 1159.65 2205.09 1160.24 2204.18C1161.14 2202.81 1162.5 2202.06 1164.41 2202.06C1166.33 2202.06 1167.59 2202.82 1168.5 2204.18C1169.1 2205.09 1169.37 2206.3 1169.47 2207.64H1159.06ZM1173.57 2204.58C1173.21 2203.19 1172.3 2201.79 1171.71 2201.15C1170.77 2200.13 1169.85 2199.42 1168.94 2199.03C1167.75 2198.52 1166.32 2198.18 1164.76 2198.18C1162.94 2198.18 1161.28 2198.48 1159.94 2199.12C1158.6 2199.75 1157.47 2200.62 1156.58 2201.69C1155.7 2202.77 1155.03 2204.04 1154.6 2205.49C1154.18 2206.94 1153.96 2208.51 1153.96 2210.17C1153.96 2211.86 1154.19 2213.43 1154.63 2214.85C1155.07 2216.27 1155.78 2217.53 1156.74 2218.57C1157.7 2219.62 1158.93 2220.44 1160.41 2221.01C1161.88 2221.58 1163.66 2221.88 1165.71 2221.87C1169.92 2221.86 1172.14 2220.92 1173.06 2220.41C1173.22 2220.32 1173.37 2220.16 1173.18 2219.71L1172.23 2217.02C1172.08 2216.62 1171.67 2216.77 1171.67 2216.77C1170.63 2217.16 1169.15 2217.86 1165.68 2217.85C1163.42 2217.85 1161.74 2217.18 1160.69 2216.13C1159.61 2215.06 1159.09 2213.48 1158.99 2211.26L1173.59 2211.27C1173.59 2211.27 1173.97 2211.26 1174.01 2210.89C1174.02 2210.73 1174.51 2207.88 1173.57 2204.58Z" fill="white"/>
<path id="Vector_11" d="M1127.52 2217.23C1126.95 2216.78 1126.87 2216.66 1126.68 2216.37C1126.39 2215.92 1126.24 2215.27 1126.24 2214.46C1126.24 2213.17 1126.67 2212.25 1127.55 2211.62C1127.54 2211.63 1128.8 2210.53 1131.78 2210.57C1133.87 2210.59 1135.74 2210.9 1135.74 2210.9V2217.56H1135.74C1135.74 2217.56 1133.89 2217.96 1131.8 2218.09C1128.83 2218.27 1127.51 2217.23 1127.52 2217.23ZM1133.33 2206.94C1132.74 2206.9 1131.97 2206.87 1131.05 2206.87C1129.8 2206.87 1128.59 2207.03 1127.46 2207.34C1126.32 2207.64 1125.29 2208.12 1124.41 2208.75C1123.52 2209.39 1122.81 2210.21 1122.29 2211.17C1121.78 2212.14 1121.51 2213.27 1121.51 2214.55C1121.51 2215.84 1121.74 2216.97 1122.18 2217.89C1122.63 2218.82 1123.27 2219.59 1124.09 2220.18C1124.9 2220.78 1125.9 2221.21 1127.06 2221.47C1128.2 2221.74 1129.5 2221.87 1130.92 2221.87C1132.42 2221.87 1133.91 2221.75 1135.35 2221.5C1136.78 2221.25 1138.54 2220.9 1139.03 2220.79C1139.51 2220.67 1140.05 2220.52 1140.05 2220.52C1140.41 2220.43 1140.38 2220.05 1140.38 2220.05L1140.38 2206.65C1140.38 2203.71 1139.6 2201.53 1138.06 2200.18C1136.53 2198.84 1134.27 2198.15 1131.36 2198.15C1130.26 2198.15 1128.5 2198.31 1127.45 2198.52C1127.45 2198.52 1124.26 2199.14 1122.95 2200.17C1122.95 2200.17 1122.66 2200.35 1122.82 2200.75L1123.85 2203.54C1123.98 2203.9 1124.33 2203.78 1124.33 2203.78C1124.33 2203.78 1124.44 2203.73 1124.57 2203.66C1127.37 2202.12 1130.92 2202.17 1130.92 2202.17C1132.5 2202.17 1133.71 2202.49 1134.53 2203.12C1135.33 2203.73 1135.73 2204.65 1135.73 2206.6V2207.22C1134.48 2207.04 1133.33 2206.94 1133.33 2206.94Z" fill="white"/>
<path id="Vector_12" d="M1251.02 2199.39C1251.13 2199.06 1250.9 2198.9 1250.8 2198.87C1250.55 2198.77 1249.31 2198.51 1248.35 2198.44C1246.52 2198.33 1245.5 2198.64 1244.59 2199.05C1243.69 2199.46 1242.68 2200.13 1242.12 2200.88V2199.1C1242.12 2198.85 1241.95 2198.65 1241.7 2198.65H1237.96C1237.72 2198.65 1237.54 2198.85 1237.54 2199.1V2220.95C1237.54 2221.19 1237.75 2221.39 1237.99 2221.39H1241.82C1242.07 2221.39 1242.26 2221.19 1242.26 2220.95V2210.03C1242.26 2208.56 1242.43 2207.1 1242.75 2206.19C1243.06 2205.28 1243.49 2204.55 1244.03 2204.03C1244.56 2203.51 1245.17 2203.15 1245.83 2202.94C1246.51 2202.73 1247.26 2202.66 1247.79 2202.66C1248.55 2202.66 1249.39 2202.86 1249.39 2202.86C1249.67 2202.89 1249.83 2202.72 1249.92 2202.47C1250.17 2201.8 1250.88 2199.79 1251.02 2199.39Z" fill="white"/>
<path id="Vector_13" d="M1215.03 2189.26C1214.57 2189.12 1214.15 2189.02 1213.59 2188.92C1213.03 2188.82 1212.37 2188.77 1211.61 2188.77C1208.97 2188.77 1206.89 2189.52 1205.43 2190.99C1203.98 2192.46 1202.99 2194.7 1202.5 2197.64L1202.32 2198.63H1199C1199 2198.63 1198.6 2198.61 1198.52 2199.05L1197.98 2202.1C1197.94 2202.39 1198.06 2202.57 1198.45 2202.57H1201.67L1198.4 2220.91C1198.15 2222.38 1197.85 2223.6 1197.53 2224.52C1197.21 2225.43 1196.9 2226.11 1196.51 2226.6C1196.14 2227.08 1195.78 2227.43 1195.17 2227.64C1194.67 2227.81 1194.09 2227.89 1193.46 2227.89C1193.11 2227.89 1192.64 2227.83 1192.29 2227.76C1191.94 2227.69 1191.76 2227.61 1191.5 2227.5C1191.5 2227.5 1191.12 2227.36 1190.97 2227.73C1190.85 2228.05 1189.99 2230.42 1189.89 2230.71C1189.79 2231 1189.93 2231.23 1190.11 2231.3C1190.54 2231.45 1190.86 2231.55 1191.45 2231.69C1192.26 2231.88 1192.94 2231.89 1193.59 2231.89C1194.93 2231.89 1196.15 2231.7 1197.17 2231.33C1198.19 2230.96 1199.08 2230.32 1199.87 2229.45C1200.72 2228.5 1201.25 2227.52 1201.76 2226.17C1202.26 2224.84 1202.7 2223.18 1203.04 2221.25L1206.33 2202.57H1211.14C1211.14 2202.57 1211.54 2202.59 1211.62 2202.15L1212.17 2199.1C1212.21 2198.81 1212.08 2198.63 1211.69 2198.63H1207.03C1207.05 2198.52 1207.26 2196.88 1207.8 2195.32C1208.03 2194.66 1208.46 2194.13 1208.82 2193.76C1209.18 2193.4 1209.59 2193.15 1210.04 2193C1210.51 2192.85 1211.03 2192.77 1211.61 2192.77C1212.05 2192.77 1212.48 2192.82 1212.81 2192.89C1213.26 2192.99 1213.44 2193.04 1213.55 2193.08C1214.03 2193.22 1214.1 2193.08 1214.19 2192.85L1215.3 2189.78C1215.42 2189.44 1215.14 2189.3 1215.03 2189.26Z" fill="white"/>
<path id="Vector_14" d="M1149.85 2220.95C1149.85 2221.19 1149.67 2221.39 1149.43 2221.39H1145.56C1145.31 2221.39 1145.14 2221.19 1145.14 2220.95V2189.68C1145.14 2189.44 1145.31 2189.24 1145.56 2189.24H1149.43C1149.67 2189.24 1149.85 2189.44 1149.85 2189.68V2220.95Z" fill="white"/>
</g>
<circle id="Ellipse 35" cx="1190.5" cy="2215.5" r="200.5" stroke="#F1F3F6" stroke-width="6"/>
</g>
<path id="arrow-salesforce" d="M965.513 2221.54C969.083 2213.45 978.529 2209.79 986.613 2213.36C994.696 2216.93 998.355 2226.38 994.785 2234.46C991.216 2242.55 981.769 2246.21 973.685 2242.64C965.602 2239.07 961.943 2229.62 965.513 2221.54ZM318.648 1460L335.185 1490.44L300.555 1489.54L318.648 1460ZM980.149 2228L980.149 2231C817.512 2231 693.481 2226.9 599.27 2210.13C505.024 2193.36 440.187 2163.84 396.363 2112.68C352.585 2061.57 330.177 1989.31 319.706 1887.99C309.233 1786.66 310.661 1655.76 314.946 1487L317.945 1487.08L320.944 1487.15C316.657 1655.98 315.248 1786.49 325.674 1887.38C336.102 1988.27 358.33 2059.05 400.92 2108.78C443.465 2158.45 506.732 2187.57 600.322 2204.22C693.947 2220.88 817.486 2225 980.149 2225L980.149 2228Z" fill="#F1F3F6"/>
</g>
<g id="magento">
<g id="magento-logo">
<g id="5151e0c8492e5103c096af88a51f602c">
<path id="Vector_15" d="M1595.01 619.312V739.194L1566.46 756.569V635.818L1566.07 635.577L1488.08 586.88L1409.87 635.619L1409.55 635.818V756.279L1381 739.194V619.312L1381.17 619.207L1488.08 553L1594.84 619.207L1595.01 619.312ZM1503.58 671.135V769.888L1488.08 779.734L1472.43 769.888V671.391V629.447L1437.53 651.164V651.436V773.943L1488.08 805.506L1538.48 773.943V651.279V651.164L1503.58 629.447V671.135H1503.58Z" fill="#E94E4E"/>
</g>
<circle id="Ellipse 31" cx="1488.5" cy="679.5" r="200.5" stroke="#F1F3F6" stroke-width="6"/>
</g>
<path id="arrow-magento" d="M1273.88 718.458C1277.45 726.541 1286.89 730.2 1294.98 726.63C1303.06 723.061 1306.72 713.614 1303.15 705.531C1299.58 697.447 1290.13 693.788 1282.05 697.358C1273.97 700.928 1270.31 710.374 1273.88 718.458ZM424.512 711.995L424.512 714.995L424.512 714.995L424.512 711.995ZM316.01 852.996L319.009 852.931L319.008 852.867L319.004 852.802L316.01 852.996ZM318.5 968.5L335.17 938.134L300.537 938.88L318.5 968.5ZM1288.51 711.994L1288.51 708.994L424.512 708.995L424.512 711.995L424.512 714.995L1288.51 714.994L1288.51 711.994ZM424.512 711.995L424.512 708.995C364.45 708.994 307.429 766.805 313.016 853.189L316.01 852.996L319.004 852.802C313.596 769.189 368.569 714.994 424.512 714.995L424.512 711.995ZM316.01 852.996L313.011 853.06L314.919 941.571L317.918 941.506L320.917 941.442L319.009 852.931L316.01 852.996Z" fill="#F1F3F6"/>
</g>
<g id="shopify">
<g id="shopify-logo">
<g id="Group_2">
<path id="Vector_16" d="M1273.85 127.006C1273.68 125.741 1272.57 125.041 1271.66 124.964C1270.74 124.887 1251.4 123.454 1251.4 123.454C1251.4 123.454 1237.96 110.115 1236.49 108.639C1235.01 107.163 1232.13 107.612 1231.01 107.941C1230.84 107.99 1228.07 108.845 1223.49 110.263C1219 97.3482 1211.08 85.4793 1197.15 85.4793C1196.76 85.4793 1196.37 85.4954 1195.97 85.5177C1192.01 80.2767 1187.1 78 1182.86 78C1150.4 78 1134.89 118.579 1130.03 139.201C1117.41 143.109 1108.45 145.888 1107.31 146.247C1100.27 148.455 1100.04 148.678 1099.12 155.312C1098.42 160.334 1080 302.802 1080 302.802L1223.55 329.699L1301.33 312.872C1301.33 312.872 1274.03 128.272 1273.85 127.006ZM1215.56 112.717C1211.95 113.833 1207.85 115.101 1203.41 116.476C1203.41 115.621 1203.42 114.778 1203.42 113.858C1203.42 105.83 1202.3 99.3681 1200.52 94.2445C1207.7 95.1463 1212.48 103.315 1215.56 112.717ZM1191.61 95.8358C1193.61 100.838 1194.9 108.016 1194.9 117.703C1194.9 118.199 1194.9 118.652 1194.9 119.111C1187 121.557 1178.41 124.214 1169.81 126.879C1174.64 108.236 1183.69 99.2327 1191.61 95.8358ZM1181.97 86.7066C1183.37 86.7066 1184.78 87.1818 1186.13 88.1119C1175.73 93.007 1164.57 105.337 1159.87 129.958C1152.98 132.09 1146.26 134.172 1140.04 136.099C1145.55 117.319 1158.65 86.7066 1181.97 86.7066Z" fill="#95BF46"/>
<path id="Vector_17" d="M1271.66 124.964C1270.74 124.887 1251.4 123.454 1251.4 123.454C1251.4 123.454 1237.96 110.115 1236.49 108.639C1235.93 108.089 1235.19 107.808 1234.41 107.687L1223.56 329.697L1301.33 312.872C1301.33 312.872 1274.03 128.272 1273.85 127.006C1273.68 125.741 1272.57 125.041 1271.66 124.964Z" fill="#5E8E3E"/>
<path id="Vector_18" d="M1197.15 167.941L1187.56 196.469C1187.56 196.469 1179.15 191.984 1168.85 191.984C1153.75 191.984 1152.99 201.461 1152.99 203.849C1152.99 216.879 1186.96 221.871 1186.96 252.39C1186.96 276.401 1171.73 291.863 1151.19 291.863C1126.55 291.863 1113.95 276.527 1113.95 276.527L1120.55 254.728C1120.55 254.728 1133.5 265.849 1144.43 265.849C1151.57 265.849 1154.48 260.226 1154.48 256.117C1154.48 239.12 1126.61 238.362 1126.61 210.435C1126.61 186.929 1143.49 164.182 1177.54 164.182C1190.66 164.182 1197.15 167.941 1197.15 167.941Z" fill="white"/>
</g>
<circle id="Ellipse 32" cx="1190.5" cy="203.5" r="200.5" stroke="#F1F3F6" stroke-width="6"/>
</g>
<path id="arrow-shopify" d="M975.864 212.464C979.434 220.547 988.88 224.206 996.964 220.636C1005.05 217.067 1008.71 207.62 1005.14 199.537C1001.57 191.453 992.12 187.794 984.037 191.364C975.953 194.934 972.294 204.38 975.864 212.464ZM318.5 968.5L335.043 938.065L300.414 938.956L318.5 968.5ZM990.5 206L990.5 203C827.866 203 703.204 206.77 608.04 223.027C512.847 239.29 446.735 268.116 401.61 318.577C356.517 369.002 332.792 440.577 321.319 541.398C309.846 642.225 310.585 772.771 314.804 941.502L317.804 941.427L320.803 941.352C316.582 772.567 315.862 642.427 327.281 542.077C338.7 441.721 362.216 371.629 406.082 322.576C449.916 273.56 514.481 245.098 609.05 228.942C703.648 212.781 827.834 209 990.5 209L990.5 206Z" fill="#F1F3F6"/>
</g>
<g id="logo">
<g id="Ellipse 29" filter="url(#filter0_d_84_140)">
<circle cx="299.5" cy="1218.5" r="203.5" fill="white"/>
</g>
<g id="logo-icon">
<rect id="Rectangle 9" x="230.984" y="1151.01" width="65.5949" height="67.0773" fill="#E15E33"/>
<rect id="Rectangle 13" x="230.984" y="1219.94" width="65.5949" height="67.0773" fill="#7652EB"/>
<path id="Rectangle 16" d="M298.803 1219.94L335.862 1256.41L366.992 1287.01H298.803V1219.94Z" fill="#3F4CB3"/>
<path id="Rectangle 10" d="M298.803 1151.01H324.93C343.452 1151.01 358.468 1166.02 358.468 1184.55V1184.55C358.468 1203.07 343.452 1218.08 324.93 1218.08H298.803V1151.01Z" fill="#448DFD"/>
</g>
</g>
</g>
<defs>
<filter id="filter0_d_84_140" x="0" y="934" width="599" height="599" filterUnits="userSpaceOnUse" color-interpolation-filters="sRGB">
<feFlood flood-opacity="0" result="BackgroundImageFix"/>
<feColorMatrix in="SourceAlpha" type="matrix" values="0 0 0 0 0 0 0 0 0 0 0 0 0 0 0 0 0 0 127 0" result="hardAlpha"/>
<feMorphology radius="4" operator="erode" in="SourceAlpha" result="effect1_dropShadow_84_140"/>
<feOffset dy="15"/>
<feGaussianBlur stdDeviation="50"/>
<feComposite in2="hardAlpha" operator="out"/>
<feColorMatrix type="matrix" values="0 0 0 0 0 0 0 0 0 0 0 0 0 0 0 0 0 0 0.1 0"/>
<feBlend mode="normal" in2="BackgroundImageFix" result="effect1_dropShadow_84_140"/>
<feBlend mode="normal" in="SourceGraphic" in2="effect1_dropShadow_84_140" result="shape"/>
</filter>
</defs>
</svg>
